<svg xmlns="http://www.w3.org/2000/svg" xmlns:xlink="http://www.w3.org/1999/xlink" viewBox="0 0 43.17 30.75"><defs><style>.cls-1{fill:none;}.cls-2{clip-path:url(#clip-path);}</style><clipPath id="clip-path"><path class="cls-1" d="M22.63,1.2H32.78s-1.29,1.2,0,1.2h1.29V8.12H28.35V9.69h3.32v.64H27.43v3.32h2.3l.1,2.31H28.72l.09-1.29-1.57.09.1,5.07h-1l.19,1.2h-1v1.29h-.83v.93H23.37l.09,5.16H25l.09,1.11H22.63V26.11L22,26V23.52s-.93,0-.93-.09v.92l-1.1.1v1.19l-.93.1v1.1l-.92-.09V28.5h1v1H17.37V28l-.73-.27V25.09h-.93V24l-1.93-.18V22.69h-.93v-.92l-1-.28s.09-7.28,0-7.19H13v1.75s.64-.09.73,0l.1.09s-.19,1.2,0,1.11l.18-.09h.83l.09,1.11,1.85-.1v-1.1l1.1-.1v-1.1H19l.1-1.11,1.47-.09v-1.2l1,.18V2.21L23,2.12Z"/></clipPath></defs><title>102Asset 2</title><g id="Layer_2" data-name="Layer 2"><g id="Layer_1-2" data-name="Layer 1"><g class="cls-2"><image width="30" height="20" transform="translate(0.64 -1.2) scale(1.4 1.66)" xlink:href="../dino.png"/></g></g></g></svg>