<svg xmlns="http://www.w3.org/2000/svg" xmlns:xlink="http://www.w3.org/1999/xlink" viewBox="0 0 28.08 20"><defs><style>.cls-1{fill:none;}.cls-2{clip-path:url(#clip-path);}</style><clipPath id="clip-path"><path class="cls-1" d="M14.72.78h6.6s-.84.78,0,.78h.84V5.28H18.44v1H20.6v.42H17.84V8.88h1.5l.06,1.5h-.72l.06-.84-1,.06.06,3.3h-.66l.12.78h-.66v.84H16v.6H15.2l.06,3.36h1l.06.72H14.72V17l-.42-.06V15.3s-.6,0-.6-.06v.6L13,15.9v.78l-.6.06v.72l-.6-.06v1.14h.66v.66H11.3v-1l-.48-.18V16.32h-.6V15.6L9,15.48v-.72h-.6v-.6L7.7,14s.06-4.74,0-4.68h.72v1.14s.42-.06.48,0L9,10.5s-.12.78,0,.72l.12-.06h.54l.06.72,1.2-.06V11.1L11.6,11v-.72h.78l.06-.72,1-.06V8.76l.64.12V1.44l.89-.06Z"/></clipPath></defs><title>102Asset 1</title><g id="Layer_2" data-name="Layer 2"><g id="Layer_1-2" data-name="Layer 1"><g class="cls-2"><image width="900" height="540" transform="scale(0.03 0.04)" xlink:href="../dino.png"/></g></g></g></svg>